<svg xmlns="http://www.w3.org/2000/svg" id="Layer_1" width="640" height="200" data-name="Layer 1" viewBox="0 0 640 200">
  <defs id="defs4"/>
  <path id="path8" fill="#4d4d4d" d="M187.986 126.518c-3.31 0-6.633-.096-9.902-.316a72.64 72.64 0 0 1-10.259-1.428V66.132c2.774-.535 5.865-.892 9.188-1.167a112.2 112.2 0 0 1 9.27-.398c3.86 0 7.389.274 10.616.851 3.227.536 6.002 1.483 8.336 2.815 2.335 1.346 4.161 3.09 5.466 5.288 1.305 2.197 1.978 4.889 1.978 8.061q0 7.252-6.99 11.427c3.859 1.428 6.454 3.447 7.841 5.919 1.387 2.513 2.101 5.328 2.101 8.46 0 6.358-2.334 11.11-6.949 14.296-4.697 3.269-11.55 4.834-20.696 4.834zm-6.894-37.492h6.633c4.216 0 7.169-.536 9.01-1.607 1.785-1.071 2.691-2.815 2.691-5.191 0-2.459-.934-4.161-2.774-5.15q-2.822-1.483-8.199-1.483c-1.167 0-2.417 0-3.763.04-1.346.042-2.513.097-3.584.22-.014 0-.014 13.17-.014 13.17zm0 10.396v15.629c.989.137 2.06.22 3.227.274 1.168.055 2.458.096 3.86.096 4.078 0 7.347-.576 9.86-1.744 2.513-1.167 3.763-3.31 3.763-6.454 0-2.775-1.03-4.793-3.131-5.96-2.102-1.21-5.11-1.786-9.01-1.786h-8.555v-.055z" class="cls-1"/>
  <path id="path10" fill="#4d4d4d" d="M235.023 66.585c0 2.376-.755 4.258-2.335 5.645-1.524 1.387-3.364 2.06-5.466 2.06a7.928 7.928 0 0 1-5.465-2.06c-1.525-1.387-2.335-3.228-2.335-5.645 0-2.376.755-4.257 2.335-5.644a8.048 8.048 0 0 1 5.465-2.06 7.928 7.928 0 0 1 5.466 2.06c1.566 1.387 2.335 3.268 2.335 5.644zm-1.25 59.178h-12.992V79.838h12.992z" class="cls-1"/>
  <path id="path12" fill="#4d4d4d" d="M240.764 68.412l12.992-2.101v13.527h15.628v10.836h-15.628v16.123c0 2.733.494 4.93 1.428 6.537.934 1.607 2.911 2.458 5.823 2.458a24.794 24.794 0 0 0 4.298-.398 27.56 27.56 0 0 0 4.08-1.071l1.84 10.121a35.765 35.765 0 0 1-5.247 1.662c-1.922.453-4.257.714-7.072.714-3.544 0-6.496-.494-8.831-1.428-2.335-.934-4.216-2.28-5.603-4.038-1.387-1.703-2.376-3.804-2.912-6.22a37.918 37.918 0 0 1-.851-8.104V68.412z" class="cls-1"/>
  <path id="path14" fill="#4d4d4d" d="M271.224 102.814a27.004 27.004 0 0 1 1.607-9.366 22.131 22.131 0 0 1 4.656-7.663c2.019-2.198 4.518-3.9 7.43-5.192 2.911-1.304 6.221-1.922 9.943-1.922 2.458 0 4.697.22 6.715.673a33.745 33.745 0 0 1 5.92 1.881l-2.692 10.396a34.62 34.62 0 0 0-4.038-1.208 20.417 20.417 0 0 0-4.889-.536c-3.86 0-6.716 1.209-8.597 3.585-1.882 2.376-2.815 5.507-2.815 9.407 0 4.12.892 7.348 2.636 9.586 1.786 2.28 4.89 3.406 9.27 3.406a29.38 29.38 0 0 0 5.068-.453 21.518 21.518 0 0 0 4.972-1.387l1.84 10.657a30.372 30.372 0 0 1-5.686 1.662 38.59 38.59 0 0 1-7.526.714c-4.216 0-7.8-.632-10.835-1.882-3.05-1.25-5.508-2.952-7.485-5.109-1.978-2.156-3.365-4.696-4.258-7.622a38.266 38.266 0 0 1-1.236-9.627z" class="cls-1"/>
  <path id="path16" fill="#4d4d4d" d="M353.02 102.732c0 3.625-.535 6.894-1.565 9.902-1.03 3.007-2.554 5.548-4.518 7.663a20.6 20.6 0 0 1-7.128 4.93c-2.788 1.168-5.864 1.744-9.27 1.744-3.364 0-6.455-.576-9.229-1.744a20.545 20.545 0 0 1-7.127-4.93c-1.978-2.101-3.544-4.697-4.615-7.663-1.126-3.008-1.662-6.318-1.662-9.902 0-3.626.577-6.894 1.703-9.86 1.127-2.953 2.692-5.508 4.697-7.568a21.19 21.19 0 0 1 7.17-4.889c2.773-1.167 5.78-1.744 9.05-1.744q4.964 0 9.132 1.744c2.774 1.167 5.15 2.774 7.128 4.89a21.86 21.86 0 0 1 4.614 7.566c1.044 2.967 1.62 6.235 1.62 9.86zm-13.252 0c0-4.038-.81-7.169-2.417-9.449-1.607-2.28-3.9-3.447-6.853-3.447s-5.287 1.167-6.894 3.447c-1.607 2.28-2.458 5.466-2.458 9.449 0 4.037.81 7.21 2.458 9.545 1.607 2.375 3.941 3.543 6.894 3.543 2.953 0 5.246-1.168 6.853-3.543 1.607-2.376 2.417-5.562 2.417-9.545z" class="cls-1"/>
  <path id="path18" fill="#4d4d4d" d="M372.467 66.585c0 2.376-.755 4.258-2.334 5.645-1.525 1.387-3.365 2.06-5.466 2.06a7.928 7.928 0 0 1-5.466-2.06c-1.524-1.387-2.335-3.228-2.335-5.645 0-2.376.756-4.257 2.335-5.644a8.048 8.048 0 0 1 5.466-2.06 7.928 7.928 0 0 1 5.466 2.06c1.565 1.387 2.334 3.268 2.334 5.644zm-1.208 59.178h-12.992V79.838h12.992z" class="cls-1"/>
  <path id="path20" fill="#4d4d4d" d="M378.647 81.404c2.198-.632 5.068-1.25 8.556-1.786a72.392 72.392 0 0 1 10.973-.851c3.9 0 7.128.494 9.724 1.524 2.595 1.03 4.655 2.459 6.139 4.299 1.524 1.881 2.595 4.079 3.227 6.633.632 2.555.934 5.425.934 8.556v25.943h-12.992v-24.377c0-4.216-.536-7.17-1.662-8.913-1.126-1.744-3.186-2.596-6.18-2.596-.934 0-1.922.041-2.953.137-1.03.097-1.977.179-2.774.316v35.433h-12.992z" class="cls-1"/>
  <path id="path22" fill="#f7941d" d="M453.728 126.971c-9.86 0-17.331-2.733-22.481-8.199-5.15-5.465-7.705-13.211-7.705-23.291 0-5.013.81-9.45 2.376-13.39 1.566-3.942 3.722-7.252 6.455-9.944a27.136 27.136 0 0 1 9.764-6.138c3.763-1.388 7.883-2.102 12.32-2.102 2.554 0 4.888.179 6.99.577a41.385 41.385 0 0 1 5.507 1.305 27.338 27.338 0 0 1 3.941 1.524c1.03.536 1.785.934 2.28 1.209l-3.942 10.973a32.194 32.194 0 0 0-6.496-2.513c-2.458-.715-5.287-1.03-8.418-1.03a19.01 19.01 0 0 0-6.14 1.03 14.453 14.453 0 0 0-5.328 3.364c-1.524 1.525-2.774 3.544-3.721 5.96-.934 2.459-1.387 5.425-1.387 8.914a33.664 33.664 0 0 0 .892 7.8c.632 2.417 1.607 4.477 2.953 6.221a14.36 14.36 0 0 0 5.37 4.162c2.197 1.03 4.889 1.524 8.02 1.524a38.44 38.44 0 0 0 5.329-.357 31.68 31.68 0 0 0 4.216-.851 24.004 24.004 0 0 0 3.227-1.072c.934-.398 1.785-.81 2.513-1.126l3.763 10.932c-1.922 1.167-4.614 2.197-8.102 3.131-3.557.934-7.622 1.387-12.196 1.387z" class="cls-2"/>
  <path id="path24" fill="#f7941d" d="M494.407 78.63c3.859 0 7.031.453 9.586 1.304 2.554.852 4.614 2.102 6.139 3.763a13.89 13.89 0 0 1 3.268 5.92c.632 2.334.934 4.93.934 7.745v27.055c-1.882.398-4.436.893-7.746 1.428-3.31.536-7.347.852-12.044.852q-4.429 0-8.061-.81c-2.418-.536-4.478-1.388-6.222-2.555a12.035 12.035 0 0 1-4.037-4.656c-.934-1.922-1.387-4.257-1.387-7.072 0-2.692.535-4.93 1.606-6.812a12.013 12.013 0 0 1 4.299-4.436c1.785-1.126 3.86-1.923 6.18-2.417a34.916 34.916 0 0 1 7.251-.755c1.703 0 3.186.096 4.477.22 1.305.137 2.376.315 3.187.576v-1.209c0-2.197-.673-3.982-2.02-5.328-1.345-1.346-3.666-2.019-6.99-2.019a44.954 44.954 0 0 0-6.537.495c-2.156.315-4.037.755-5.603 1.345l-1.662-10.478c.756-.22 1.703-.495 2.816-.756 1.126-.274 2.376-.494 3.721-.714 1.346-.22 2.733-.357 4.217-.535 1.579-.055 3.103-.151 4.628-.151zm1.03 38.028c1.304 0 2.513-.042 3.667-.097a17.67 17.67 0 0 0 2.774-.274v-9.86c-.536-.138-1.305-.22-2.376-.358a21.848 21.848 0 0 0-2.87-.178 30.129 30.129 0 0 0-3.448.22c-1.07.137-2.018.398-2.815.85a4.806 4.806 0 0 0-1.923 1.663 4.724 4.724 0 0 0-.714 2.595c0 2.019.673 3.447 2.06 4.216 1.387.866 3.269 1.223 5.645 1.223z" class="cls-2"/>
  <path id="path26" fill="#f7941d" d="M534.536 116.438c2.376 0 4.079-.22 5.068-.714.988-.454 1.483-1.387 1.483-2.692 0-1.03-.632-1.978-1.923-2.733-1.305-.81-3.227-1.662-5.864-2.637-2.019-.755-3.9-1.524-5.548-2.376-1.662-.81-3.09-1.785-4.217-2.911a11.681 11.681 0 0 1-2.691-4.08c-.632-1.565-.934-3.446-.934-5.685 0-4.298 1.607-7.704 4.793-10.217 3.186-2.514 7.567-3.763 13.17-3.763a43.425 43.425 0 0 1 8.02.755c2.555.494 4.615 1.03 6.098 1.607l-2.28 10.121a42.342 42.342 0 0 0-4.93-1.387 27.274 27.274 0 0 0-5.96-.631c-4.08 0-6.098 1.126-6.098 3.405a3.33 3.33 0 0 0 .275 1.387 3.085 3.085 0 0 0 1.03 1.168 13.885 13.885 0 0 0 2.156 1.208 30.447 30.447 0 0 0 3.447 1.429c2.87 1.07 5.191 2.1 7.073 3.13 1.881 1.03 3.31 2.157 4.394 3.31a10.642 10.642 0 0 1 2.28 3.942c.453 1.428.673 3.131.673 5.068 0 4.518-1.703 7.979-5.109 10.259-3.406 2.334-8.199 3.488-14.42 3.488-4.079 0-7.485-.357-10.163-1.03-2.691-.714-4.573-1.305-5.644-1.744l2.197-10.575a44.317 44.317 0 0 0 6.812 2.06 28.033 28.033 0 0 0 6.812.838z" class="cls-2"/>
  <path id="path28" fill="#f7941d" d="M558.872 125.763V60.13l12.991-2.102V80.03a30.178 30.178 0 0 1 3.365-.851 20.287 20.287 0 0 1 3.983-.398c3.722 0 6.812.494 9.27 1.524 2.458 1.03 4.436 2.458 5.919 4.299 1.483 1.881 2.513 4.078 3.131 6.633.632 2.554.893 5.425.893 8.556v25.942h-12.992v-24.39c0-4.216-.536-7.17-1.607-8.913-1.071-1.744-3.09-2.596-5.96-2.596a15.523 15.523 0 0 0-3.269.316c-1.03.22-1.922.398-2.733.673v34.897h-12.991z" class="cls-2"/>
  <path id="path30" fill="#f7941d" d="M125.426 127.426c18.937-13.273 23.53-39.384 10.257-58.32a41.874 41.874 0 0 0-10.257-10.257h31.467v68.577z" class="cls-2"/>
  <path id="path32" fill="#f7941d" d="M59.55 93.132a41.796 41.796 0 0 0 17.839 34.284H45.887V58.849h31.502a41.797 41.797 0 0 0-17.84 34.283z" class="cls-2"/>
  <circle id="circle34" cx="101.39" cy="93.115" r="34.26" fill="#f7941d" class="cls-2"/>
  <path id="path36" fill="#fff" d="M117.459 94.538l-.02-.035-.002-.006c-.012-.036-.02-.073-.034-.112v-.003l-.003-.003v-.003l-.002-.003-.002-.003-.002-.003-.003-.006a6.998 6.998 0 0 0-2.288-3.424l-.002-.003-.098-.076-.045-.033-.032-.025-.014-.012-.03-.021-.014-.012-.03-.021-.014-.012-.032-.025-.017-.01-.032-.024-.017-.01-.036-.023-.016-.01-.021-.031-.018-.013-.036-.023-.018-.013-.035-.023-.019-.013-.035-.023-.018-.013-.037-.025-.018-.013-.04-.025-.019-.013-.04-.024-.018-.013-.04-.024-.018-.013-.04-.024-.021-.011-.04-.025-.021-.011-.043-.023-.021-.011-.044-.026-.022-.01-.044-.027-.022-.01-.044-.027-.023-.013-.044-.026-.023-.013-.047-.025-.023-.013-.047-.024-.032-.017-.002-.003c-.023-.014-.048-.024-.07-.039a9.77 9.77 0 0 0-3.129-.989 8.748 8.748 0 0 0 .838-1.052l.04-.06.003-.002.019-.03.024-.039.014-.018.024-.04.013-.018.024-.04.014-.019.024-.04.013-.018.024-.04.013-.018.022-.038.013-.019.02-.038.01-.016.022-.038.01-.017.022-.038.01-.017.018-.037.01-.017.019-.036.01-.017.018-.036.01-.017.02-.034.01-.017.02-.033.01-.017.017-.032.01-.017.017-.032.007-.015.017-.032.007-.015.017-.032.007-.015.017-.032.007-.015.014-.03.007-.016.013-.03.007-.016.014-.03.007-.015.016-.035.02-.046.044-.103.003-.002a6.215 6.215 0 0 0 .316-3.65l-.002-.002-.003-.006-.002-.003-.002-.004-.002-.003-.002-.003-.002-.003-.002-.003a.993.993 0 0 0-.024-.102v-.007l-.002-.003-.002-.004-.002-.003.002.003-.014-.026a1.762 1.762 0 0 0-.036-.144c-.01-.048-.025-.097-.039-.143l-.017-.033-.003-.006-.03-.098-.002-.003-.002-.003-.002-.003-.002-.003-.002-.003-.002-.003-.002-.003a6.216 6.216 0 0 0-2.036-3.046l-.002-.003c-.027-.023-.058-.044-.086-.067l-.038-.03-.03-.021-.014-.011-.026-.02-.014-.012-.026-.02-.014-.012-.027-.018-.013-.011-.03-.022-.015-.011-.03-.022-.014-.012-.03-.021-.017-.01-.031-.022-.017-.01-.03-.021-.017-.01-.034-.02-.017-.01-.033-.02-.017-.01-.034-.02-.017-.01-.033-.02-.017-.01-.035-.024-.017-.01-.035-.023-.017-.01-.038-.021-.017-.01-.038-.022-.019-.013-.038-.021-.018-.013-.038-.021-.019-.013-.04-.024-.02-.012-.04-.024-.022-.011-.043-.023-.021-.011-.043-.023-.03-.014-.002-.003-.064-.034c-1.871-.972-4.248-1.265-6.64-.651l-.622.16-1.575-6.127-3.646.934 1.569 6.103-2.917.749-1.57-6.086-3.646.935 1.569 6.103-7.52 1.935 1 3.889 3.03-.779a1.875 1.875 0 0 1 2.284 1.349v.003l4.205 16.362a1.253 1.253 0 0 1-.9 1.524l-2.655.683.156 4.625 7.51-1.93 1.59 6.092 3.644-.938-1.57-6.106 2.917-.748 1.57 6.105 3.645-.937-1.575-6.13 1.517-.394c2.695-.692 4.874-2.273 6.193-4.243l.045-.066.003-.002.021-.03.029-.046.014-.023.028-.046.014-.023.026-.044.013-.023.026-.044.011-.022.026-.044.011-.021.026-.045.011-.021.023-.043.011-.021.023-.043.011-.021.025-.04.01-.022.025-.04.011-.02.022-.039.011-.021.022-.038.01-.022.022-.038.008-.02.022-.038.008-.02.018-.036.01-.017.019-.037.01-.017.018-.036.01-.017.018-.037.01-.016.019-.037.01-.017.018-.036.01-.017.015-.035.01-.017.016-.035.007-.015.017-.04.022-.05c.017-.04.035-.076.05-.114v-.004a7.007 7.007 0 0 0 .357-4.105l-.001-.003-.002-.003-.001-.003-.002-.003-.002-.003-.002-.003-.001-.003-.002-.003-.026-.111v-.008l-.002-.003-.002-.003-.001-.003-.002-.003-.002-.003-.002-.003-.001-.003-.002-.003-.002-.003-.002-.003-.001-.003-.002-.003-.002-.003-.006-.012c-.014-.054-.024-.109-.041-.161 0-.031-.007-.088-.011-.151zM96.036 83.592c.622-.16 3.194-.806 4.042-1.027 1.348-.345 2.677-.21 3.714.289l.035.015.015.007.022.012.01.005.022.011.01.005.022.012.01.006.022.01.011.007.021.011.011.006.022.011.01.006.022.012.01.006.022.01.01.007.022.011.01.006.019.013.01.006.019.013.01.005.02.013.01.005.017.01.01.005.017.01.01.005.018.01.01.006.017.01.011.006.017.01.008.007.017.01.006.004.017.01.006.004.017.01.006.004.016.01.006.004.014.012.006.004.017.01.023.014c.017.01.032.024.05.034a3.145 3.145 0 0 1 1.113 1.597l.005.009.017.052.002.003.009.018.022.076a.438.438 0 0 1 .014.082l.01.018.002.003a.249.249 0 0 0 .013.053l.005.01a3.156 3.156 0 0 1-.208 1.934l-.023.055-.013.026-.01.017-.003.009-.007.015-.003.01-.01.016-.003.009-.01.017-.003.009-.01.016-.003.01-.01.016-.003.009-.01.017-.003.009-.01.016-.006.011-.01.017-.006.01-.01.017-.006.011-.01.017-.006.01-.013.019-.006.01-.014.02-.006.01-.012.018-.006.01-.013.02-.006.01-.014.018-.006.011-.013.018-.006.011-.013.019-.006.01-.013.019-.006.01-.016.02-.006.011-.015.02-.006.01-.016.02-.006.012-.016.02-.012.013-.021.03c-.671.94-1.77 1.7-3.118 2.044-.85.218-3.415.89-4.037 1.05zm14.252 12.545l.009.018.002.003c.004.02.009.037.012.058l.002.003.002.003.002.003.002.003a3.241 3.241 0 0 1-.293 2.115l-.033.06-.016.027-.01.021-.007.01-.01.018-.006.01-.01.017-.006.01-.013.02-.006.01-.013.019-.006.01-.013.019-.006.01-.013.019-.006.01-.014.019-.006.01-.013.019-.006.01-.013.019-.006.01-.014.019-.006.01-.012.02-.006.01-.016.02-.006.01-.016.02-.006.011-.014.023-.006.011-.014.023-.006.01-.013.024-.01.012-.013.023-.009.012-.017.024-.01.013-.017.024-.008.012-.017.025-.009.012-.017.025-.008.012-.018.024-.013.016-.028.034c-.814 1.04-2.128 1.895-3.723 2.304-1.006.26-4.046 1.055-4.785 1.244l-2.07-8.053c.738-.192 3.787-.956 4.793-1.216 1.596-.41 3.162-.294 4.372.223l.04.017.02.01.028.01.014.005.026.012.014.004.026.013.013.004.026.013.011.005.026.013.01.005.026.012.011.006.026.013.01.006.022.011.01.006.022.011.011.006.021.012.011.006.022.011.01.006.022.011.01.006.022.012.01.006.022.01.01.007.022.011.01.006.022.011.01.005.02.013.01.005.018.014.011.005.018.013.011.005.018.014.011.006.019.013.01.006.017.01.01.006.02.013.024.017c.018.013.04.024.058.037a3.25 3.25 0 0 1 1.275 1.712l.006.012.018.054.002.003.01.018.022.083c.014.003.016.036.01.077z"/>
</svg>
